<svg height="512pt" viewBox="-26 0 512 512.00224" width="512pt" xmlns="http://www.w3.org/2000/svg"><path d="m250 366.003906c5.519531 0 10-4.480468 10-10 0-5.519531-4.480469-10-10-10s-10 4.480469-10 10c0 5.519532 4.480469 10 10 10zm0 0"/><path d="m210 366.003906c5.519531 0 10-4.480468 10-10 0-5.519531-4.480469-10-10-10s-10 4.480469-10 10c0 5.519532 4.480469 10 10 10zm0 0"/><path d="m170 196.003906c-5.519531 0-10 4.480469-10 10 0 5.519532 4.480469 10 10 10 5.523438 0 10-4.480468 10-10 0-5.519531-4.476562-10-10-10zm0 0"/><path d="m207.136719 89.332031c-33.640625 10.054688-57.132813 41.582031-57.132813 76.671875 0 .496094 0 .996094.011719 1.492188.125 5.441406 4.578125 9.769531 9.992187 9.769531.078126 0 .15625-.003906.238282-.003906 5.519531-.128907 9.890625-4.707031 9.765625-10.230469-.011719-.34375-.007813-.683594-.007813-1.027344 0-26.316406 17.625-49.964844 42.863282-57.507812 5.289062-1.582032 8.296874-7.152344 6.714843-12.441406-1.578125-5.292969-7.148437-8.300782-12.445312-6.722657zm0 0"/><path d="m18.324219 210.457031c-3.0625-4.597656-9.273438-5.835937-13.867188-2.773437-4.597656 3.0625-5.835937 9.273437-2.773437 13.867187l40 60c1.851562 2.78125 4.976562 4.453125 8.320312 4.453125h126.765625l-110.226562 40.617188c-2.386719.878906-4.347657 2.636718-5.484375 4.910156l-60 120c-2.46875 4.9375-.46875 10.945312 4.472656 13.414062 4.9375 2.46875 10.945312.46875 13.417969-4.472656l58.226562-116.457031 76.535157-28.203125-31.03125 33.382812c-1.71875 1.847657-2.675782 4.28125-2.675782 6.808594v86c0 1.972656.582032 3.902344 1.679688 5.546875l40 59.996094c3.070312 4.609375 9.285156 5.832031 13.867187 2.773437 4.59375-3.0625 5.835938-9.269531 2.773438-13.867187l-38.320313-57.476563v-79.042968l20.0625-21.585938c.597656 18.113282 8.085938 35.050782 20.949219 47.632813-.667969 3.277343-1.011719 6.628906-1.011719 10.023437 0 17.792969 9.574219 34.386719 24.992188 43.304688 4.789062 2.773437 10.902344 1.121094 13.664062-3.648438 2.765625-4.777344 1.132813-10.894531-3.648437-13.660156-8.292969-4.796875-13.753907-13.292969-14.808594-22.683594 9.269531 4.359375 19.460937 6.6875 29.800781 6.6875s20.527344-2.328125 29.800782-6.6875c-1.054688 9.390625-6.519532 17.886719-14.808594 22.683594-4.78125 2.765625-6.414063 8.882812-3.648438 13.660156 2.765625 4.78125 8.886719 6.414063 13.664063 3.648438 15.417969-8.917969 24.992187-25.511719 24.992187-43.304688 0-3.394531-.347656-6.746094-1.015625-10.023437 12.867188-12.582031 20.355469-29.523438 20.949219-47.640625l20.066406 21.59375v79.039062l-38.320312 57.480469c-3.0625 4.59375-1.820313 10.804687 2.773437 13.867187 4.574219 3.050782 10.789063 1.84375 13.867188-2.773437l40-60c1.09375-1.640625 1.679687-3.570313 1.679687-5.546875v-86c0-2.523438-.957031-4.957031-2.675781-6.804688l-27.382813-29.46875 72.960938 24.441407 58.152344 116.304687c2.46875 4.9375 8.476562 6.941406 13.414062 4.472656 4.941406-2.46875 6.945313-8.476562 4.472656-13.417968l-60-119.996094c-1.183593-2.371094-3.257812-4.171875-5.765624-5.011719l-111.03125-37.195312c-1.023438-1.144531-2.070313-2.257813-3.15625-3.324219h131.011718c3.34375 0 6.464844-1.667969 8.320313-4.453125l40-60c3.0625-4.59375 1.820312-10.800781-2.773438-13.863281-4.59375-3.066406-10.804687-1.824219-13.867187 2.769531l-37.03125 55.546875h-108.183594c10.683594-7.132812 20.289062-16.054688 28.429688-26.574219l91.476562-75.71875c2.664062-2.207031 4-5.632812 3.53125-9.0625l-20-146c-.75-5.472656-5.792969-9.308593-11.265625-8.5468748-5.46875.7460938-9.296875 5.7929688-8.546875 11.2656248l19.242188 140.484375-53.042969 43.90625c2.445312-9.613281 3.707031-19.578125 3.707031-29.75 0-66.167968-53.832031-120-120-120s-120 53.832032-120 120c0 10.210938 1.269531 20.210938 3.730469 29.855469l-53.066407-44.007813 19.246094-140.492187c.75-5.472656-3.078125-10.515625-8.550781-11.265625-5.480469-.757812-10.515625 3.078125-11.265625 8.550781l-20 146c-.46875 3.425781.863281 6.847657 3.523438 9.054688l91.765624 76.09375c8.085938 10.359375 17.597657 19.15625 28.160157 26.207031h-108.1875zm261.675781 125.546875c0 27.46875-22.207031 50-50 50-11.570312 0-22.441406-3.84375-31.429688-11.117187-11.800781-9.542969-18.570312-23.714844-18.570312-38.882813 0-27.960937 22.800781-50 50-50 27.894531 0 50 22.683594 50 50zm-149.996094-170c0-55.140625 44.859375-100 99.996094-100 55.140625 0 100 44.859375 100 100 0 53.636719-43.132812 100-100 100-56.457031 0-99.996094-45.972656-99.996094-100zm0 0"/></svg>