<svg height="512" viewBox="0 0 60 60" width="512" xmlns="http://www.w3.org/2000/svg"><g id="Page-1" fill="none" fill-rule="evenodd"><g id="035---Manatee" fill-rule="nonzero"><g id="Icons" transform="translate(1 1)"><path id="Shape" d="m37.11 35.13c-1.73 3.84-4.59 3.17-7 1.75-1.2752384-.7067457-2.1614695-1.9533529-2.41-3.39 2.4497774-.0875172 4.8600122-.6442475 7.1-1.64h.01c.4101703 1.3043107 1.2135076 2.4499396 2.3 3.28z" fill="#607d8b"/><path id="Shape" d="m34.81 31.85h-.01c-.8379985.382539-1.7054756.6968908-2.594.94.424577.9285476 1.0784192 1.7338059 1.9 2.34-.4073755 1.1048407-1.20871 2.0201428-2.25 2.57 1.941.661 3.929.369 5.254-2.572-1.086157-.8295338-1.8894629-1.9744193-2.3-3.278z" fill="#37474f"/><path id="Shape" d="m58 12v6c0 2-3 4-5 4h-2c-1.6990477.0854769-3.3928137-.2512149-4.93-.98-.9981255 1.5423253-2.0901882 3.0217863-3.27 4.43 1.0805333 1.3228151 1.8342253 2.8815873 2.2 4.55 1 5-2 6-5 6-1.0308285.0209497-2.0420473-.2834656-2.89-.87-1.0864924-.8300604-1.8898297-1.9756893-2.3-3.28h-.01c-2.2399878.9957525-4.6502226 1.5524828-7.1 1.64-3.71.22-7.26-.26-10.7.51-3.6208493.8596853-6.81381 2.9883258-9 6 .70267508 3.2860082 1.03806602 6.6399177 1 10 0 5-2 8-5 8s-4-2-4-8c.03631927-3.7537175.71268627-7.473736 2-11 1.82985175-9.2112499 5.95761867-17.8107643 12-25 5.44-6.44 10.61-8.87 14.5-9.7 1.1615532-1.95509789 3.2283004-3.1951462 5.5-3.3 1.1351635-.03483057 2.264398.17668766 3.31.62 1.7275763-1.01617472 3.6862537-1.57382978 5.69-1.62 8 0 15 9 15 12z" fill="#7f8e94"/><g fill="#545c60"><path id="Shape" d="m14 34c-3.6208493.8596853-6.81380999 2.9883258-9 6 .70267508 3.2860082 1.03806602 6.6399177 1 10 0 4.151-1.381 6.917-3.566 7.739.50097859.1845674 1.03224164.2731112 1.566.261 3 0 5-3 5-8 .03806602-3.3600823-.29732492-6.7139918-1-10 2.18619-3.0116742 5.3791507-5.1403147 9-6 1.4582316-.2999206 2.9432455-.4503654 4.432-.449-2.4863443-.132619-4.9797054.018016-7.432.449z"/><path id="Shape" d="m42.8 25.45c.9722834-1.1584617 1.8822364-2.367838 2.726-3.623-.8580175-.1298375-1.6881928-.402619-2.456-.807-.9981255 1.5423253-2.0901882 3.0217863-3.27 4.43 1.0805333 1.3228151 1.8342253 2.8815873 2.2 4.55.8 4-.958 5.434-3.226 5.851.4015938.0965551.8129692.146551 1.226.149 3 0 6-1 5-6-.3657747-1.6684127-1.1194667-3.2271849-2.2-4.55z"/><path id="Shape" d="m43 0c-.4871256.00166951-.9734577.03943963-1.455.113 7.335 1.035 13.455 9.087 13.455 11.887v6c0 1.938-2.813 3.87-4.807 3.989.488.011.707.011 2.807.011 2 0 5-2 5-4v-6c0-3-7-12-15-12z"/></g><circle id="Oval" cx="47" cy="9" fill="#3f51b5" r="2"/><circle id="Oval" cx="55" cy="30" fill="#02a9f4" r="3"/><circle id="Oval" cx="51" cy="38" fill="#02a9f4" r="2"/></g><g id="Icons_copy" fill="#000"><path id="Shape" d="m51 10c0-1.65685425-1.3431458-3-3-3s-3 1.34314575-3 3c0 1.6568542 1.3431458 3 3 3s3-1.3431458 3-3zm-4 0c0-.55228475.4477153-1 1-1s1 .44771525 1 1c0 .5522847-.4477153 1-1 1s-1-.4477153-1-1z"/><path id="Shape" d="m55 15c0 .5522847.4477153 1 1 1s1-.4477153 1-1c.0112942-.5338153-.1957906-1.0491116-.5733395-1.4266605s-.8928452-.5846337-1.4266605-.5733395c-.5522847 0-1 .4477153-1 1s.4477153 1 1 1z"/><path id="Shape" d="m44 0c-2.009512.03808298-3.9796844.56382834-5.741 1.532-1.0461677-.36927813-2.1497075-.54942025-3.259-.532-2.465175.08136831-4.7361341 1.35864288-6.086 3.423-5.188 1.213-10.126 4.542-14.678 9.931-6.13380797 7.2949116-10.32974499 16.0183335-12.2 25.364-1.31464081 3.6177006-2.00316301 7.4329793-2.036 11.282 0 4.554.386 9 5 9 3.645 0 6-3.533 6-9 .023029-3.2821751-.286552-6.5582385-.924-9.778 2.0447293-2.6168292 4.9140523-4.4655726 8.142-5.246 2.1537795-.3922157 4.3453909-.536489 6.532-.43 1.036.009 2.107.006 3.19-.032.4523324 1.3704857 1.4012525 2.5220323 2.66 3.228 1.1522702.755136 2.4850462 1.1893842 3.861 1.258.4563233.0035355.9104193-.0639379 1.346-.2 1.1525792-.407922 2.1140263-1.2269324 2.7-2.3.7870009.3388176 1.6362128.5091368 2.493.5 2.428 0 4.11-.613 5.144-1.873 1.014-1.237 1.3-3.028.836-5.323-.3294056-1.5587522-.9787687-3.0321629-1.907-4.327.771-.95 1.547-2 2.353-3.187 1.4657959.5247842 3.0180922.7657397 4.574.71h2c2.369 0 6-2.24 6-5v-6c0-3.641-7.607-13-16-13zm-8.8 37.89c-.909.288-2.113-.006-3.586-.873-.6752111-.381218-1.2204131-.95638-1.565-1.651 1.7838589-.1709345 3.5364074-.5823293 5.21-1.223.3905376.8344835.9284952 1.5916216 1.588 2.235-.3436735.6899235-.9302717 1.2284398-1.647 1.512zm22.8-18.89c0 1.362-2.457 3-4 3h-2c-1.5309477.0850963-3.0592112-.2092894-4.449-.857-1.718-.926-2.551-2.607-2.551-5.143 0-.5522847-.4477153-1-1-1s-1 .4477153-1 1c0 3.353 1.308 5.23 2.681 6.291-.6473333.9513333-1.2806667 1.818-1.9 2.6-.9671048-1.0527177-2.0662084-1.9760318-3.27-2.747-.472347-.2723636-1.075816-.1161362-1.3566637.3512161-.2808476.4673523-.1355416 1.0735437.3266637 1.3627839.047.028 4.632 2.825 5.535 7.339.335 1.679.193 2.911-.423 3.663s-1.827 1.14-3.593 1.14c-4.86 0-5-7.181-5-8 0-.5522847-.4477153-1-1-1s-1 .4477153-1 1c-.0059207 1.4430091.1824373 2.8802485.56 4.273-1.8930677.727266-3.8926161 1.1390669-5.919 1.219-1.3.077-2.608.065-3.874.054-2.3386145-.1078359-4.6818852.0525426-6.984.478-3.8786593.9090333-7.2963856 3.1930835-9.62 6.429-.15220369.2330303-.20040079.5189515-.133.789.67828454 3.2075498 1.0035536 6.4796895.97 9.758 0 4.318-1.533 7-4 7-1.757 0-3-.5-3-7 .04176794-3.6261657.69388618-7.2194082 1.929-10.629.02206183-.0553663.03912976-.1125941.051-.171 1.79932075-9.0446449 5.85251277-17.488795 11.784-24.55 3.675-4.352 7.58-7.253 11.632-8.692-.5866851 1.22587073-1.046412 2.50854899-1.372 3.828-.1198537.5383825.2188402 1.0721499.757 1.193.0719687.0152741.1454402.0223193.219.021.4676332-.000339.8725884-.3247185.975-.781.4740575-1.90167467 1.266949-3.70926446 2.345-5.346 1.331-1.907 2.906-2.873 4.68-2.873.2806667 0 .55.01066667.808.032-.5190922.3830219-1.0159001.7953591-1.488 1.235-1.9967477 1.68348489-3.2001617 4.12402287-3.32 6.733 0 .5522847.4477153 1 1 1s1-.4477153 1-1c.1260017-2.05290656 1.0978995-3.96157762 2.684-5.271.940953-.87313544 1.9878062-1.62467926 3.116-2.237 1.5760036-.9366585 3.3671333-1.45057494 5.2-1.492 7.382 0 14 8.462 14 11z"/><circle id="Oval" cx="49" cy="19" r="1"/><circle id="Oval" cx="48" cy="16" r="1"/><circle id="Oval" cx="51" cy="17" r="1"/><path id="Shape" d="m56 27c-2.209139 0-4 1.790861-4 4s1.790861 4 4 4 4-1.790861 4-4-1.790861-4-4-4zm0 6c-1.1045695 0-2-.8954305-2-2s.8954305-2 2-2 2 .8954305 2 2-.8954305 2-2 2z"/><path id="Shape" d="m52 36c-1.6568542 0-3 1.3431458-3 3s1.3431458 3 3 3 3-1.3431458 3-3-1.3431458-3-3-3zm0 4c-.5522847 0-1-.4477153-1-1s.4477153-1 1-1 1 .4477153 1 1-.4477153 1-1 1z"/><circle id="Oval" cx="58" cy="38" r="1"/></g></g></g></svg>